<svg width="19" height="19" viewBox="0 0 19 19" fill="none" xmlns="http://www.w3.org/2000/svg">
<circle cx="9.5" cy="9.5" r="9.5" fill="#151442"/>
<path d="M11.964 13V12.304H7.296C7.344 12.024 7.464 11.768 7.656 11.536C7.848 11.296 8.068 11.076 8.316 10.876C8.572 10.676 8.836 10.496 9.108 10.336C9.38 10.168 9.616 10.016 9.816 9.88C10.096 9.704 10.36 9.516 10.608 9.316C10.864 9.108 11.088 8.884 11.28 8.644C11.48 8.404 11.636 8.14 11.748 7.852C11.868 7.564 11.928 7.244 11.928 6.892C11.928 6.5 11.86 6.156 11.724 5.86C11.596 5.564 11.412 5.32 11.172 5.128C10.94 4.928 10.664 4.78 10.344 4.684C10.032 4.58 9.692 4.528 9.324 4.528C8.868 4.528 8.468 4.604 8.124 4.756C7.788 4.9 7.508 5.104 7.284 5.368C7.06 5.632 6.892 5.948 6.78 6.316C6.676 6.676 6.628 7.072 6.636 7.504H7.392C7.384 7.192 7.412 6.896 7.476 6.616C7.548 6.336 7.66 6.088 7.812 5.872C7.964 5.656 8.16 5.484 8.4 5.356C8.648 5.228 8.944 5.164 9.288 5.164C9.544 5.164 9.784 5.204 10.008 5.284C10.24 5.356 10.44 5.468 10.608 5.62C10.784 5.764 10.92 5.944 11.016 6.16C11.12 6.368 11.172 6.608 11.172 6.88C11.172 7.216 11.112 7.508 10.992 7.756C10.88 7.996 10.708 8.232 10.476 8.464C10.244 8.696 9.98 8.916 9.684 9.124C9.396 9.324 9.104 9.524 8.808 9.724C8.512 9.916 8.224 10.12 7.944 10.336C7.664 10.544 7.412 10.776 7.188 11.032C6.964 11.288 6.784 11.576 6.648 11.896C6.512 12.216 6.44 12.584 6.432 13H11.964Z" fill="white"/>
</svg>
